<?xml version="1.0" standalone="no"?>
<!DOCTYPE svg PUBLIC "-//W3C//DTD SVG 20010904//EN"
 "http://www.w3.org/TR/2001/REC-SVG-20010904/DTD/svg10.dtd">
<svg version="1.0" xmlns="http://www.w3.org/2000/svg"
 width="452.000000pt" height="452.000000pt" viewBox="0 0 452.000000 452.000000"
 preserveAspectRatio="xMidYMid meet">
<metadata>
Created by potrace 1.14, written by Peter Selinger 2001-2017
</metadata>
<g transform="translate(0.000000,452.000000) scale(0.100000,-0.100000)"
fill="#000000" stroke="none">
<path d="M2224 4245 c-20 -8 -41 -31 -59 -61 -15 -27 -39 -69 -53 -94 -13 -25
-50 -88 -80 -140 -30 -52 -66 -115 -80 -140 -14 -25 -161 -283 -327 -575 -167
-291 -311 -546 -322 -565 -11 -19 -175 -307 -365 -640 -190 -333 -354 -621
-365 -640 -11 -19 -92 -161 -180 -315 -88 -154 -171 -300 -185 -325 -14 -25
-50 -88 -80 -140 -144 -249 -148 -262 -99 -311 l30 -29 2206 2 2207 3 24 28
c13 15 24 40 24 55 0 17 -79 166 -211 397 -116 204 -221 389 -234 412 -13 23
-69 121 -125 218 -56 97 -113 197 -127 223 -14 25 -39 68 -54 94 -16 27 -29
51 -29 53 0 3 -18 34 -40 70 -22 36 -40 68 -40 71 0 3 -8 18 -18 32 -11 15
-32 52 -49 82 -17 30 -86 152 -153 270 -68 118 -133 233 -146 255 -12 22 -66
117 -119 210 -54 94 -109 190 -123 215 -14 25 -67 117 -117 205 -50 88 -103
180 -117 205 -14 25 -70 124 -125 220 -55 96 -110 192 -122 213 -153 273 -247
429 -263 438 -31 17 -52 18 -84 4z m394 -890 c185 -324 354 -621 376 -660 21
-38 47 -82 57 -97 11 -14 19 -28 19 -31 0 -3 32 -60 70 -127 39 -67 70 -124
70 -127 0 -3 9 -18 21 -34 27 -39 17 -37 -50 11 -235 169 -500 283 -736 318
-64 9 -307 9 -365 0 -261 -42 -503 -146 -743 -320 l-68 -49 17 33 c15 28 44
81 156 277 11 19 64 111 118 206 54 95 108 189 120 209 11 21 39 70 61 109 23
40 53 92 67 117 14 25 86 151 160 280 158 277 188 329 245 432 38 69 43 76 55
60 7 -9 165 -282 350 -607z m-183 -928 c258 -46 520 -177 780 -390 84 -69 315
-303 315 -320 0 -21 -224 -245 -329 -330 -308 -248 -629 -385 -912 -390 -318
-5 -606 109 -948 373 -110 85 -351 323 -351 347 0 17 232 253 320 324 254 206
488 325 746 378 86 18 297 22 379 8z m-1465 -964 c322 -328 668 -540 1010
-617 127 -29 295 -38 425 -23 373 43 768 261 1123 618 66 67 116 109 121 103
9 -10 621 -1083 621 -1089 0 -2 -904 -3 -2010 -4 -1105 0 -2010 2 -2010 4 0 3
9 19 19 37 56 98 217 379 238 418 14 25 34 59 44 75 10 17 24 42 31 55 54 101
292 510 297 510 4 0 45 -39 91 -87z"/>
<path d="M2170 2253 c-203 -34 -383 -201 -435 -403 -13 -48 -16 -90 -12 -160
8 -169 70 -286 216 -410 34 -29 144 -79 199 -91 222 -47 445 42 571 228 148
220 118 501 -74 688 -120 118 -302 175 -465 148z m191 -387 c82 -55 103 -178
42 -254 -75 -94 -203 -97 -282 -6 -58 66 -51 179 16 241 60 57 154 65 224 19z"/>
</g>
</svg>
